<svg xmlns="http://www.w3.org/2000/svg" width="265" height="29" viewBox="0 0 265 29" fill="none"><path d="M197.317 19.5399V13.5187C197.317 13.2553 197.369 12.9944 197.47 12.7511C197.571 12.5077 197.719 12.2866 197.905 12.1004C198.091 11.9141 198.312 11.7664 198.556 11.6657C198.799 11.5649 199.06 11.5131 199.323 11.5132H201.099C201.63 11.5143 202.138 11.7258 202.513 12.1013C202.888 12.4769 203.098 12.9858 203.098 13.5163V14.7978C203.098 15.3299 202.887 15.8401 202.511 16.2164C202.134 16.5926 201.624 16.8039 201.092 16.8039H198.581" stroke="#2F2F2F" stroke-width="0.437911" stroke-linecap="round" stroke-linejoin="round"></path><path d="M203.597 11.5122H204.366C204.585 11.5122 204.794 11.599 204.948 11.7534C205.103 11.9078 205.19 12.1172 205.19 12.3356V16.8343" stroke="#2F2F2F" stroke-width="0.437911" stroke-linecap="round" stroke-linejoin="round"></path><path d="M205.023 10.8154L204.674 10.4656C204.653 10.445 204.637 10.4205 204.626 10.3935C204.615 10.3665 204.609 10.3376 204.609 10.3084C204.609 10.2792 204.615 10.2503 204.626 10.2234C204.637 10.1964 204.653 10.1719 204.674 10.1513L205.023 9.80203C205.044 9.78136 205.068 9.76496 205.095 9.75377C205.122 9.74258 205.151 9.73682 205.18 9.73682C205.21 9.73682 205.238 9.74258 205.265 9.75377C205.292 9.76496 205.317 9.78136 205.338 9.80203L205.687 10.1513C205.708 10.1719 205.724 10.1964 205.736 10.2234C205.747 10.2503 205.753 10.2792 205.753 10.3084C205.753 10.3376 205.747 10.3665 205.736 10.3935C205.724 10.4205 205.708 10.445 205.687 10.4656L205.338 10.8154C205.317 10.8361 205.292 10.8525 205.265 10.8637C205.238 10.8749 205.21 10.8806 205.18 10.8806C205.151 10.8806 205.122 10.8749 205.095 10.8637C205.068 10.8525 205.044 10.8361 205.023 10.8154Z" fill="#2F2F2F"></path><path d="M206.671 11.5083H207.435C207.829 11.5084 208.206 11.6646 208.484 11.9428L210.273 13.731C210.328 13.7862 210.393 13.8301 210.465 13.8599C210.537 13.8898 210.615 13.9052 210.693 13.9052C210.77 13.9052 210.848 13.8898 210.92 13.8599C210.992 13.8301 211.057 13.7862 211.112 13.731L212.896 11.9493C213.034 11.8115 213.197 11.7022 213.377 11.6277C213.557 11.5531 213.75 11.5148 213.945 11.5148H214.566" stroke="#2F2F2F" stroke-width="0.437911" stroke-linecap="round" stroke-linejoin="round"></path><path d="M206.671 16.7938H207.435C207.829 16.7937 208.206 16.6375 208.484 16.3593L210.273 14.5717C210.328 14.5164 210.393 14.4726 210.465 14.4427C210.537 14.4128 210.615 14.3975 210.693 14.3975C210.77 14.3975 210.848 14.4128 210.92 14.4427C210.992 14.4726 211.057 14.5164 211.112 14.5717L212.896 16.3528C213.034 16.4906 213.197 16.5999 213.377 16.6744C213.557 16.749 213.75 16.7873 213.945 16.7873H214.566" stroke="#2F2F2F" stroke-width="0.437911" stroke-linecap="round" stroke-linejoin="round"></path><path d="M192.758 17.9364C192.569 17.9369 192.382 17.9 192.208 17.8278C192.033 17.7556 191.875 17.6494 191.742 17.5155L190.274 16.0516C190.223 16.0019 190.154 15.9741 190.082 15.9741C190.01 15.9741 189.941 16.0019 189.889 16.0516L188.416 17.5238C188.283 17.6577 188.125 17.7638 187.95 17.8361C187.776 17.9083 187.589 17.9452 187.4 17.9447H187.111L188.969 19.8033C189.248 20.0819 189.626 20.2384 190.02 20.2384C190.414 20.2384 190.792 20.0819 191.071 19.8033L192.935 17.9393L192.758 17.9364Z" fill="#2F2F2F"></path><path d="M187.4 12.7463C187.589 12.7458 187.776 12.7828 187.95 12.8551C188.125 12.9273 188.283 13.0334 188.416 13.1672L189.889 14.6399C189.94 14.6909 190.01 14.7195 190.082 14.7195C190.154 14.7195 190.223 14.6909 190.274 14.6399L191.742 13.1725C191.875 13.0387 192.034 12.9326 192.208 12.8604C192.382 12.7881 192.569 12.7512 192.758 12.7516H192.936L191.072 10.8882C190.934 10.7501 190.771 10.6406 190.59 10.5658C190.41 10.4911 190.217 10.4526 190.021 10.4526C189.826 10.4526 189.633 10.4911 189.453 10.5658C189.272 10.6406 189.108 10.7501 188.97 10.8882L187.112 12.7463H187.4Z" fill="#2F2F2F"></path><path d="M194.477 14.2929L193.352 13.1682C193.327 13.1784 193.299 13.1838 193.272 13.1842H192.76C192.493 13.1853 192.238 13.2917 192.05 13.4802L190.58 14.9446C190.515 15.0101 190.437 15.0619 190.352 15.0973C190.266 15.1326 190.175 15.1508 190.082 15.1506C189.895 15.151 189.716 15.0771 189.584 14.9452L188.111 13.4725C187.922 13.284 187.667 13.1776 187.401 13.1765H186.771C186.745 13.176 186.72 13.1708 186.696 13.1611L185.565 14.2917C185.427 14.4297 185.317 14.5936 185.243 14.7739C185.168 14.9542 185.129 15.1475 185.129 15.3427C185.129 15.5379 185.168 15.7312 185.243 15.9116C185.317 16.0919 185.427 16.2557 185.565 16.3937L186.696 17.5243C186.72 17.5146 186.745 17.5094 186.771 17.5089H187.401C187.667 17.5076 187.922 17.4013 188.111 17.2129L189.584 15.7402C189.718 15.6121 189.896 15.5407 190.082 15.5407C190.267 15.5407 190.446 15.6121 190.58 15.7402L192.047 17.2076C192.236 17.3959 192.491 17.5023 192.758 17.5036H193.27C193.297 17.5039 193.324 17.5095 193.35 17.5202L194.474 16.3955C194.753 16.1167 194.909 15.7386 194.909 15.3445C194.909 14.9503 194.753 14.5723 194.474 14.2935" fill="#2F2F2F"></path><path d="M198.846 19.028C198.753 19.0322 198.661 19.0463 198.571 19.0701V19.4371C198.64 19.4613 198.712 19.4735 198.785 19.4732C198.969 19.4732 199.056 19.411 199.056 19.2488C199.056 19.0967 198.985 19.028 198.846 19.028ZM198.508 19.7094V18.9842H198.559L198.565 19.0156C198.658 18.9905 198.755 18.975 198.852 18.9694C198.919 18.9648 198.986 18.9841 199.04 19.0239C199.07 19.0528 199.093 19.088 199.107 19.1269C199.121 19.1659 199.127 19.2075 199.123 19.2488C199.126 19.2949 199.117 19.341 199.096 19.3823C199.075 19.4235 199.044 19.4582 199.004 19.4826C198.938 19.5154 198.865 19.5316 198.791 19.53C198.716 19.5295 198.641 19.5182 198.57 19.4963V19.7094H198.508Z" fill="#2F2F2F"></path><path d="M199.584 19.0263C199.4 19.0263 199.319 19.0855 199.319 19.2459C199.319 19.4063 199.4 19.4732 199.584 19.4732C199.769 19.4732 199.85 19.414 199.85 19.2542C199.85 19.0944 199.769 19.0263 199.584 19.0263ZM199.821 19.4732C199.75 19.5171 199.668 19.5377 199.584 19.5324C199.501 19.5374 199.419 19.5167 199.348 19.4732C199.315 19.4469 199.289 19.4127 199.272 19.3737C199.255 19.3347 199.249 19.2922 199.253 19.2501C199.249 19.2079 199.256 19.1654 199.272 19.1263C199.289 19.0873 199.315 19.053 199.348 19.0263C199.419 18.9825 199.501 18.9618 199.584 18.9671C199.668 18.9619 199.75 18.9826 199.821 19.0263C199.854 19.0527 199.88 19.0869 199.897 19.1257C199.913 19.1645 199.92 19.2068 199.916 19.2489C199.92 19.2912 199.913 19.3339 199.897 19.373C199.88 19.4122 199.854 19.4466 199.821 19.4732Z" fill="#2F2F2F"></path><path d="M200.692 19.5152L200.487 19.0748H200.483L200.281 19.5152H200.229L200.01 18.9824H200.078L200.26 19.4282H200.264L200.462 18.9824H200.521L200.724 19.4282H200.728L200.906 18.9824H200.972L200.754 19.5152H200.692Z" fill="#2F2F2F"></path><path d="M201.363 19.0249C201.193 19.0249 201.135 19.1007 201.127 19.2102H201.604C201.599 19.0888 201.537 19.0249 201.367 19.0249H201.363ZM201.367 19.5298C201.288 19.5382 201.21 19.5171 201.146 19.4707C201.115 19.4426 201.092 19.408 201.076 19.3695C201.061 19.331 201.054 19.2895 201.057 19.2481C201.055 19.2051 201.063 19.1622 201.08 19.1228C201.097 19.0833 201.123 19.0484 201.156 19.0208C201.218 18.9821 201.29 18.9635 201.363 18.9675C201.438 18.9629 201.512 18.9809 201.576 19.019C201.653 19.0705 201.668 19.1611 201.668 19.2641H201.122C201.122 19.373 201.16 19.4701 201.366 19.4701C201.459 19.4679 201.55 19.4576 201.641 19.4393V19.4949C201.549 19.5141 201.455 19.5252 201.362 19.5281" fill="#2F2F2F"></path><path d="M201.845 19.5153V18.9826H201.896L201.901 19.0139C201.986 18.986 202.075 18.9704 202.165 18.9678H202.172V19.027H202.158C202.073 19.0288 201.988 19.043 201.907 19.069V19.5141L201.845 19.5153Z" fill="#2F2F2F"></path><path d="M202.533 19.0251C202.362 19.0251 202.304 19.1009 202.296 19.2104H202.774C202.768 19.089 202.706 19.0251 202.537 19.0251H202.533ZM202.537 19.53C202.459 19.5382 202.38 19.5171 202.316 19.4708C202.287 19.4425 202.264 19.4079 202.25 19.3697C202.236 19.3316 202.23 19.2907 202.233 19.25C202.231 19.2071 202.239 19.1642 202.256 19.1247C202.273 19.0852 202.299 19.0503 202.332 19.0227C202.394 18.9841 202.467 18.9655 202.539 18.9694C202.614 18.9649 202.687 18.9828 202.751 19.0209C202.828 19.0724 202.843 19.163 202.843 19.266H202.298C202.298 19.3749 202.336 19.472 202.542 19.472C202.635 19.4698 202.727 19.4595 202.817 19.4412V19.4969C202.725 19.516 202.631 19.5271 202.537 19.53Z" fill="#2F2F2F"></path><path d="M203.516 19.0617C203.447 19.0376 203.375 19.0256 203.302 19.0261C203.118 19.0261 203.03 19.0883 203.03 19.2499C203.03 19.4115 203.102 19.4707 203.241 19.4707C203.334 19.4663 203.426 19.4526 203.516 19.4298V19.0617ZM203.528 19.5151L203.523 19.4831C203.429 19.5084 203.333 19.524 203.236 19.5299C203.168 19.535 203.101 19.5155 203.047 19.4748C203.017 19.446 202.994 19.4109 202.98 19.3719C202.965 19.333 202.96 19.2912 202.964 19.2499C202.96 19.204 202.97 19.158 202.99 19.117C203.011 19.0759 203.043 19.0414 203.082 19.0173C203.149 18.9837 203.223 18.9673 203.297 18.9693C203.372 18.9702 203.445 18.9815 203.517 19.0031V18.7598H203.579V19.5151H203.528Z" fill="#2F2F2F"></path><path d="M204.49 19.0279C204.397 19.0321 204.305 19.0462 204.215 19.0699V19.4358C204.283 19.4609 204.356 19.4735 204.429 19.4731C204.614 19.4731 204.701 19.4109 204.701 19.2487C204.701 19.0966 204.629 19.0279 204.49 19.0279ZM204.649 19.4825C204.583 19.5152 204.509 19.5315 204.435 19.5299C204.355 19.529 204.275 19.5155 204.199 19.4896V19.5151H204.156V18.7598H204.215V19.0113C204.307 18.9878 204.401 18.9732 204.496 18.9675C204.564 18.9629 204.63 18.9822 204.685 19.022C204.714 19.0509 204.737 19.0861 204.752 19.1251C204.766 19.164 204.771 19.2056 204.767 19.2469C204.771 19.293 204.762 19.3392 204.741 19.3804C204.72 19.4216 204.688 19.4563 204.649 19.4807" fill="#2F2F2F"></path><path d="M204.846 19.7215V19.6624C204.876 19.6624 204.905 19.6677 204.924 19.6677C204.96 19.6706 204.996 19.6614 205.026 19.6416C205.057 19.6217 205.079 19.5924 205.091 19.5582L205.111 19.5161L204.833 18.9834H204.905L205.142 19.4416H205.146L205.372 18.9834H205.442L205.146 19.5795C205.091 19.6878 205.033 19.7233 204.924 19.7233C204.898 19.7245 204.872 19.7239 204.846 19.7215Z" fill="#2F2F2F"></path><path d="M206.299 19.2118H206.093V19.3982H206.3C206.442 19.3982 206.496 19.3822 206.496 19.3041C206.496 19.226 206.422 19.2118 206.299 19.2118ZM206.262 18.9099H206.093V19.0993H206.262C206.402 19.0993 206.458 19.0827 206.458 19.0034C206.458 18.9241 206.388 18.9099 206.262 18.9099ZM206.581 19.4645C206.505 19.5125 206.414 19.5148 206.247 19.5148H205.932V18.7944H206.239C206.383 18.7944 206.472 18.7944 206.545 18.8406C206.57 18.8552 206.589 18.8764 206.603 18.9017C206.616 18.927 206.621 18.9555 206.619 18.9839C206.621 19.0194 206.611 19.0545 206.59 19.0835C206.569 19.1125 206.54 19.1337 206.505 19.1437V19.1478C206.598 19.1685 206.658 19.2159 206.658 19.3183C206.66 19.3474 206.654 19.3765 206.64 19.4023C206.627 19.4282 206.606 19.4497 206.581 19.4645Z" fill="#2F2F2F"></path><path d="M207.287 19.2919C207.228 19.2866 207.162 19.2836 207.096 19.2836C206.987 19.2836 206.949 19.3055 206.949 19.3552C206.949 19.405 206.981 19.4263 207.064 19.4263C207.139 19.4236 207.214 19.4131 207.287 19.3949V19.2919ZM207.318 19.5151L207.314 19.4831C207.22 19.5098 207.123 19.5255 207.026 19.5299C206.97 19.5336 206.914 19.52 206.865 19.4908C206.846 19.4759 206.83 19.4564 206.82 19.434C206.809 19.4116 206.805 19.387 206.806 19.3623C206.805 19.3322 206.813 19.3023 206.829 19.2766C206.844 19.2509 206.868 19.2307 206.895 19.2185C206.959 19.1947 207.027 19.1846 207.095 19.1889C207.151 19.1889 207.225 19.1919 207.287 19.196V19.1889C207.287 19.106 207.233 19.0788 207.083 19.0788C207.024 19.0788 206.955 19.0818 206.888 19.0883V18.9805C206.962 18.9746 207.046 18.9705 207.116 18.9705C207.201 18.963 207.287 18.98 207.363 19.0196C207.422 19.0628 207.435 19.1226 207.435 19.2019V19.5163L207.318 19.5151Z" fill="#2F2F2F"></path><path d="M208.129 19.5151V19.2191C208.129 19.1226 208.079 19.0877 207.991 19.0877C207.917 19.0908 207.845 19.1021 207.774 19.1214V19.5127H207.628V18.9799H207.746L207.751 19.0131C207.844 18.9863 207.939 18.9702 208.035 18.9652C208.1 18.9601 208.165 18.9795 208.217 19.0196C208.239 19.0412 208.255 19.0674 208.266 19.0961C208.276 19.1249 208.28 19.1556 208.277 19.1859V19.5109L208.129 19.5151Z" fill="#2F2F2F"></path><path d="M208.693 19.5298C208.623 19.5352 208.553 19.5153 208.496 19.4735C208.465 19.4449 208.442 19.4098 208.427 19.3708C208.413 19.3318 208.407 19.29 208.411 19.2486C208.409 19.2047 208.417 19.1608 208.436 19.1211C208.455 19.0814 208.484 19.0473 208.52 19.0219C208.591 18.9821 208.672 18.9638 208.753 18.9692C208.812 18.9692 208.874 18.9733 208.94 18.9793V19.0929C208.887 19.0882 208.822 19.0834 208.771 19.0834C208.63 19.0834 208.564 19.1278 208.564 19.2498C208.564 19.3717 208.613 19.4137 208.729 19.4137C208.804 19.4114 208.878 19.4023 208.952 19.3865V19.496C208.867 19.5155 208.78 19.5268 208.693 19.5298Z" fill="#2F2F2F"></path><path d="M209.391 19.0805C209.25 19.0805 209.188 19.1249 209.188 19.2456C209.188 19.3664 209.247 19.4179 209.391 19.4179C209.535 19.4179 209.592 19.3747 209.592 19.2539C209.592 19.1332 209.533 19.0805 209.391 19.0805ZM209.646 19.4735C209.568 19.5173 209.48 19.5369 209.391 19.5298C209.302 19.5366 209.213 19.5171 209.135 19.4735C209.101 19.4481 209.073 19.4141 209.056 19.3749C209.038 19.3357 209.031 19.2925 209.035 19.2498C209.031 19.2068 209.038 19.1635 209.056 19.1241C209.073 19.0847 209.101 19.0505 209.135 19.0248C209.213 18.9815 209.302 18.9621 209.391 18.9692C209.48 18.9624 209.568 18.9818 209.646 19.0248C209.68 19.0504 209.707 19.0845 209.725 19.1237C209.742 19.1629 209.749 19.2059 209.745 19.2486C209.749 19.2914 209.742 19.3346 209.724 19.374C209.707 19.4134 209.68 19.4476 209.646 19.4735Z" fill="#2F2F2F"></path><path d="M210.6 19.53C210.508 19.5358 210.417 19.5092 210.342 19.4548C210.255 19.3838 210.229 19.2731 210.229 19.1541C210.226 19.095 210.238 19.036 210.264 18.9825C210.289 18.9291 210.328 18.8829 210.376 18.8481C210.469 18.7967 210.574 18.773 210.68 18.78C210.76 18.78 210.842 18.7853 210.931 18.7924V18.9221C210.855 18.9156 210.76 18.9102 210.687 18.9102C210.481 18.9102 210.394 18.9884 210.394 19.1541C210.394 19.3199 210.475 19.3992 210.626 19.3992C210.735 19.3956 210.842 19.3811 210.947 19.356V19.485C210.833 19.5117 210.717 19.5269 210.6 19.5306" fill="#2F2F2F"></path><path d="M211.383 19.064C211.26 19.064 211.213 19.1078 211.205 19.1889H211.561C211.556 19.1025 211.506 19.064 211.383 19.064ZM211.361 19.5298C211.281 19.537 211.202 19.5161 211.136 19.4706C211.106 19.4425 211.083 19.4079 211.068 19.3695C211.053 19.331 211.047 19.2897 211.051 19.2487C211.049 19.2062 211.056 19.1637 211.074 19.1248C211.091 19.0859 211.117 19.0517 211.15 19.0249C211.22 18.9829 211.302 18.9634 211.383 18.9693C211.463 18.9643 211.543 18.9828 211.613 19.0226C211.698 19.0817 211.706 19.1753 211.707 19.2848H211.202C211.205 19.3659 211.249 19.418 211.398 19.418C211.493 19.4159 211.587 19.4068 211.681 19.3907V19.4949C211.575 19.5149 211.468 19.5266 211.361 19.5298Z" fill="#2F2F2F"></path><path d="M212.366 19.5151V19.2191C212.366 19.1226 212.317 19.0877 212.229 19.0877C212.156 19.0908 212.083 19.1021 212.012 19.1214V19.5127H211.864V18.9799H211.985L211.99 19.0131C212.083 18.9862 212.178 18.9701 212.274 18.9652C212.339 18.9601 212.404 18.9795 212.456 19.0196C212.478 19.0412 212.494 19.0674 212.504 19.0961C212.515 19.1249 212.518 19.1556 212.515 19.1859V19.5109L212.366 19.5151Z" fill="#2F2F2F"></path><path d="M212.936 19.53C212.903 19.5332 212.87 19.5279 212.84 19.5146C212.809 19.5014 212.783 19.4806 212.763 19.4542C212.734 19.4059 212.72 19.3497 212.724 19.2932V19.0943H212.617V18.9842H212.724L212.74 18.8232H212.872V18.9842H213.081V19.0943H212.872V19.2648C212.87 19.2992 212.875 19.3337 212.887 19.366C212.896 19.3832 212.91 19.3972 212.927 19.406C212.944 19.4148 212.964 19.418 212.983 19.4152C213.019 19.4146 213.054 19.411 213.089 19.4045V19.5111C213.039 19.5221 212.987 19.5285 212.936 19.53Z" fill="#2F2F2F"></path><path d="M213.226 19.5153V18.9826H213.344L213.349 19.0157C213.434 18.9871 213.523 18.971 213.612 18.9678H213.631V19.0944C213.614 19.0944 213.594 19.0944 213.58 19.0944C213.509 19.0947 213.439 19.1038 213.371 19.1217V19.5141L213.226 19.5153Z" fill="#2F2F2F"></path><path d="M214.173 19.2919C214.111 19.2866 214.047 19.2836 213.981 19.2836C213.873 19.2836 213.835 19.3055 213.835 19.3553C213.835 19.405 213.867 19.4263 213.95 19.4263C214.025 19.4236 214.1 19.4131 214.173 19.3949V19.2919ZM214.204 19.5151L214.198 19.4849C214.104 19.5115 214.008 19.5272 213.91 19.5316C213.854 19.5353 213.797 19.5217 213.749 19.4926C213.729 19.4776 213.714 19.4581 213.703 19.4357C213.693 19.4133 213.688 19.3887 213.69 19.3641C213.688 19.3331 213.697 19.3023 213.713 19.2762C213.73 19.2501 213.755 19.23 213.784 19.2185C213.847 19.1952 213.915 19.1855 213.982 19.1901C214.038 19.1901 214.113 19.1931 214.175 19.1972V19.1889C214.175 19.106 214.12 19.0788 213.971 19.0788C213.912 19.0788 213.842 19.0818 213.775 19.0883V18.9806C213.85 18.9746 213.934 18.9705 214.003 18.9705C214.089 18.963 214.174 18.98 214.25 19.0196C214.31 19.0628 214.323 19.1226 214.323 19.2019V19.5163L214.204 19.5151Z" fill="#2F2F2F"></path><path d="M214.511 18.7598H214.66V19.5151H214.511V18.7598Z" fill="#2F2F2F"></path><path fill-rule="evenodd" clip-rule="evenodd" d="M115.816 22.9293C120.213 22.9293 123.778 19.3231 123.778 14.8746C123.778 10.4261 120.213 6.81982 115.816 6.81982C113.845 6.81982 112.041 7.54419 110.651 8.7441C109.26 7.54432 107.457 6.82004 105.486 6.82004C101.089 6.82004 97.5239 10.4263 97.5239 14.8748C97.5239 19.3233 101.089 22.9296 105.486 22.9296C107.457 22.9296 109.261 22.2052 110.651 21.0053C112.041 22.2051 113.845 22.9293 115.816 22.9293Z" fill="#2F2F2F"></path><path fill-rule="evenodd" clip-rule="evenodd" d="M110.651 21.0052C112.363 19.5278 113.449 17.3294 113.449 14.8746C113.449 12.4197 112.363 10.2214 110.651 8.74399C112.041 7.54415 113.845 6.81982 115.816 6.81982C120.213 6.81982 123.778 10.4261 123.778 14.8746C123.778 19.3231 120.213 22.9293 115.816 22.9293C113.845 22.9293 112.041 22.205 110.651 21.0052Z" fill="#2F2F2F"></path><path fill-rule="evenodd" clip-rule="evenodd" d="M110.651 21.0048C112.363 19.5274 113.448 17.329 113.448 14.8742C113.448 12.4194 112.363 10.221 110.651 8.74365C108.939 10.221 107.853 12.4194 107.853 14.8742C107.853 17.329 108.939 19.5274 110.651 21.0048Z" fill="#494949"></path><path fill-rule="evenodd" clip-rule="evenodd" d="M142.231 10.9038L138.409 19.3597H142.984L143.551 18.0115H144.847L145.414 19.3597H150.449V18.3307L150.898 19.3597H153.502L153.951 18.3089V19.3597H164.423L165.696 18.0465L166.888 19.3597L172.267 19.3706L168.434 15.1554L172.267 10.9038H166.972L165.732 12.1927L164.577 10.9038H153.186L152.208 13.0863L151.206 10.9038H146.642V11.8978L146.134 10.9038H142.231ZM157.868 12.1043H163.881L165.72 14.091L167.619 12.1043H169.458L166.663 15.154L169.458 18.1684H167.535L165.696 16.1587L163.788 18.1684H157.868V12.1043ZM159.353 14.4682V13.3606V13.3595H163.105L164.742 15.1309L163.032 16.912H159.353V15.7028H162.633V14.4682H159.353ZM143.116 12.1043H145.345L147.88 17.8383V12.1043H150.323L152.28 16.2156L154.084 12.1043H156.515V18.172H155.036L155.024 13.4174L152.868 18.172H151.545L149.377 13.4174V18.172H146.334L145.758 16.8117H142.642L142.066 18.1708H140.436L143.116 12.1043ZM143.174 15.5543L144.2 13.131L145.226 15.5543H143.174Z" fill="#2F2F2F"></path><path fill-rule="evenodd" clip-rule="evenodd" d="M57.3678 19.9564H54.8937L53.0384 12.8785C52.9504 12.5529 52.7634 12.265 52.4883 12.1294C51.802 11.7884 51.0456 11.5171 50.2205 11.3803V11.1078H54.2061C54.7562 11.1078 55.1687 11.5171 55.2375 11.9925L56.2001 17.0981L58.673 11.1078H61.0783L57.3678 19.9564ZM62.4535 19.9564H60.1169L62.041 11.1078H64.3775L62.4535 19.9564ZM67.4005 13.5592C67.4693 13.0826 67.8818 12.8101 68.3631 12.8101C69.1195 12.7417 69.9434 12.8786 70.631 13.2183L71.0435 11.3132C70.3559 11.0406 69.5996 10.9038 68.9132 10.9038C66.6454 10.9038 64.9952 12.1295 64.9952 13.8306C64.9952 15.1246 66.1641 15.8041 66.9892 16.2135C67.8818 16.6216 68.2256 16.8941 68.1569 17.3023C68.1569 17.9145 67.4693 18.187 66.7829 18.187C65.9578 18.187 65.1327 17.983 64.3776 17.642L63.965 19.5484C64.7901 19.8881 65.6828 20.025 66.5079 20.025C69.0507 20.0922 70.631 18.8677 70.631 17.0298C70.631 14.7153 67.4005 14.5796 67.4005 13.5592ZM78.8084 19.9564L76.9531 11.1078H74.9603C74.5478 11.1078 74.1352 11.3803 73.9977 11.7884L70.5622 19.9564H72.9675L73.4476 18.6635H76.403L76.6781 19.9564H78.8084ZM75.3041 13.4908L75.9905 16.8257H74.0665L75.3041 13.4908Z" fill="#2F2F2F"></path><g clip-path="url(#clip0_101_120)"><path d="M5.83453 6.81982H6.15874V15.4281H5.83453V6.81982ZM6.48295 6.81982H6.80716V15.4281H6.48295V6.81982ZM8.42964 6.81982H8.75385V15.4281H8.42964V6.81982ZM14.7403 6.81982H15.0645V15.4281H14.7403V6.81982ZM16.8501 6.81982H17.1743V15.4281H16.8501V6.81982ZM18.8959 6.81982H19.2201V15.4281H18.8959V6.81982ZM19.4231 6.81982H19.7473V15.4281H19.4235L19.4231 6.81982ZM19.9511 6.81982H20.2753V15.4281H19.9511V6.81982ZM20.5444 6.81982H20.8686V15.4281H20.5445L20.5444 6.81982ZM21.1377 6.81982H21.4619V15.4281H21.1377V6.81982ZM22.787 6.81982H23.1112V15.4281H22.7866L22.787 6.81982ZM26.8764 6.81982H27.2006V15.4281H26.8764V6.81982ZM31.1421 6.81982H31.4662V15.4281H31.142L31.1421 6.81982ZM32.3088 6.81982H32.633V15.4281H32.3088V6.81982ZM33.1523 6.81982H33.4766V15.4281H33.1523V6.81982ZM33.6713 6.81982H33.9956V15.4281H33.6713V6.81982ZM10.5707 6.81982H10.8949V15.4281H10.5707V6.81982ZM7.32649 6.81982H7.91031V15.4281H7.32649V6.81982ZM11.1791 6.81982H11.7628V15.4281H11.1791V6.81982ZM13.8843 6.81982H14.468V15.4281H13.8843V6.81982ZM15.2693 6.81982H15.853V15.4281H15.2693V6.81982ZM17.4459 6.81982H18.0296V15.4281H17.4459V6.81982ZM23.6512 6.81982H24.5591V15.4281H23.6512V6.81982ZM24.8372 6.81982H25.5503V15.4281H24.8364L24.8372 6.81982ZM26.0886 6.81982H26.6723V15.4281H26.0886V6.81982ZM27.7434 6.81982H28.7167V15.4281H27.7434V6.81982ZM29.6493 6.81982H30.6227V15.4281H29.6493V6.81982ZM9.07839 6.81982H10.2458V15.4281H9.07839V6.81982ZM12.1043 6.81982H13.0122V15.4281H12.1043V6.81982Z" fill="#2F2F2F"></path><path d="M6.25433 23.0712V18.144H8.10324C8.41221 18.1321 8.72038 18.1829 9.00916 18.2934C9.2305 18.388 9.41709 18.5489 9.54325 18.7539C9.6683 18.9479 9.73541 19.1735 9.73671 19.4043C9.73672 19.6148 9.67732 19.821 9.56534 19.9991C9.43918 20.1954 9.25958 20.3516 9.04768 20.4492C9.31962 20.5191 9.56126 20.676 9.73583 20.896C9.89736 21.1107 9.98195 21.3735 9.97601 21.6422C9.97792 21.8652 9.92796 22.0855 9.83006 22.2859C9.74729 22.4655 9.62296 22.6229 9.46734 22.745C9.30535 22.8612 9.12193 22.9442 8.92769 22.9892C8.66724 23.0489 8.40048 23.0766 8.13332 23.0717L6.25433 23.0712ZM6.90697 20.2146H7.97249C8.18059 20.2227 8.38885 20.2035 8.59194 20.1574C8.74059 20.1197 8.87239 20.0335 8.96643 19.9123C9.05398 19.7864 9.09819 19.6354 9.0924 19.4821C9.0954 19.33 9.05456 19.1802 8.97475 19.0506C8.8986 18.9276 8.78022 18.8366 8.64177 18.7945C8.39612 18.738 8.14397 18.7149 7.89213 18.7256H6.90719L6.90697 20.2146ZM6.90697 22.4899H8.13354C8.28191 22.4938 8.43036 22.486 8.57751 22.4666C8.7106 22.445 8.83838 22.3982 8.954 22.3289C9.05965 22.2606 9.14538 22.1657 9.20251 22.0536C9.26921 21.9263 9.30283 21.7843 9.30029 21.6406C9.30487 21.4692 9.25553 21.3006 9.15922 21.1587C9.06413 21.0225 8.92627 20.922 8.76753 20.8731C8.5328 20.8096 8.28986 20.7818 8.04686 20.7905H6.90697V22.4899ZM10.9289 20.672C10.8875 19.9699 11.1241 19.2796 11.5874 18.7505C11.8058 18.5212 12.0703 18.3408 12.3635 18.2211C12.6567 18.1015 12.9719 18.0454 13.2883 18.0566C13.7205 18.0507 14.146 18.1636 14.5184 18.3829C14.8804 18.5969 15.1709 18.9132 15.3534 19.2921C15.55 19.7048 15.6483 20.1574 15.6404 20.6145C15.6487 21.0791 15.5453 21.539 15.3389 21.9554C15.1516 22.3343 14.8524 22.6466 14.482 22.8502C14.1157 23.0521 13.7038 23.1569 13.2856 23.1544C12.848 23.1616 12.4171 23.0455 12.0425 22.8192C11.682 22.6007 11.3932 22.2815 11.2117 21.901C11.0245 21.5184 10.9278 21.0979 10.9289 20.672ZM11.6014 20.6823C11.5734 21.195 11.7462 21.6984 12.0832 22.0858C12.2352 22.2522 12.4212 22.3842 12.6285 22.4726C12.8359 22.5611 13.0598 22.604 13.2851 22.5986C13.5118 22.6043 13.7371 22.561 13.9455 22.4715C14.1539 22.382 14.3404 22.2486 14.4924 22.0802C14.8324 21.6692 15.0026 21.1437 14.9681 20.6114C14.9771 20.2509 14.9088 19.8928 14.7678 19.5609C14.6435 19.2748 14.4363 19.0324 14.1731 18.865C13.91 18.6997 13.6047 18.6139 13.294 18.618C13.0738 18.6146 12.8552 18.6549 12.6507 18.7366C12.4462 18.8182 12.2599 18.9395 12.1025 19.0936C11.9163 19.3109 11.776 19.5635 11.6899 19.8364C11.6038 20.1093 11.5737 20.3967 11.6014 20.6815V20.6823ZM16.7096 23.0715V18.144H17.3614V22.4895H19.7878V23.0712L16.7096 23.0715ZM20.8327 23.0715V18.144H24.3955V18.7256H21.4846V20.2351H24.2104V20.8133H21.4846V22.49H24.5099V23.0717L20.8327 23.0715ZM26.9191 23.0715V18.7256H25.2949V18.144H29.2005V18.7256H27.5705V23.0712L26.9191 23.0715ZM29.8018 20.672C29.7609 19.9697 29.9981 19.2796 30.4619 18.7508C30.6803 18.5215 30.9448 18.3411 31.2379 18.2215C31.5311 18.1018 31.8463 18.0458 32.1628 18.0569C32.5949 18.051 33.0204 18.1639 33.3928 18.3832C33.7548 18.5972 34.0454 18.9136 34.2278 19.2925C34.4245 19.7051 34.5228 20.1578 34.5148 20.6148C34.5229 21.0795 34.4193 21.5394 34.2127 21.9557C34.0247 22.3353 33.7246 22.6479 33.3529 22.8512C32.9867 23.0531 32.5748 23.1578 32.1566 23.1554C31.7186 23.1626 31.2876 23.0462 30.9128 22.8196C30.553 22.6007 30.2649 22.2816 30.084 21.9013C29.897 21.5186 29.8004 21.098 29.8018 20.672ZM30.4743 20.6823C30.4463 21.195 30.6191 21.6984 30.9561 22.0858C31.1081 22.2522 31.294 22.3842 31.5014 22.4726C31.7087 22.5611 31.9326 22.604 32.158 22.5986C32.3854 22.605 32.6114 22.5621 32.8206 22.4727C33.0297 22.3833 33.217 22.2497 33.3695 22.0809C33.7095 21.6698 33.8796 21.1444 33.8451 20.612C33.8521 20.2512 33.7817 19.8929 33.6385 19.5616C33.5142 19.2755 33.3071 19.0331 33.0438 18.8657C32.7809 18.7005 32.4758 18.6147 32.1653 18.6186C31.9451 18.6153 31.7265 18.6556 31.5219 18.7372C31.3174 18.8188 31.1311 18.9402 30.9737 19.0942C30.7879 19.3116 30.6479 19.5641 30.5621 19.8369C30.4763 20.1096 30.4464 20.3969 30.4743 20.6814V20.6823Z" fill="#2F2F2F"></path></g><path d="M227.798 10.446C227.509 10.87 227.229 11.2136 227.023 11.5972C226.383 12.7846 226.266 14.0303 226.744 15.3005C227.319 16.8339 228.412 17.8117 230.014 18.189C231.551 18.5509 232.91 18.1577 234.094 17.1394C234.258 16.9992 234.35 17.0045 234.488 17.1486C234.741 17.4151 235.002 17.6748 235.267 17.9288C235.397 18.0531 235.391 18.137 235.257 18.2598C233.957 19.452 232.42 20.011 230.668 19.9142C229.15 19.8303 227.827 19.24 226.732 18.1818C225.86 17.3389 225.294 16.3154 225.012 15.1348C224.772 14.1324 224.801 13.1325 225.068 12.1446C225.327 11.1895 225.794 10.339 226.466 9.6065C226.669 9.38579 226.691 9.38579 226.902 9.58722C227.208 9.87877 227.512 10.1718 227.798 10.4464V10.446Z" fill="#2F2F2F"></path><path d="M244.517 12.1773C245.03 12.1773 245.485 12.1686 245.939 12.1869C246.005 12.1898 246.097 12.3137 246.124 12.3985C246.441 13.4028 246.748 14.4099 247.059 15.4161C247.074 15.4638 247.105 15.5062 247.16 15.6108C247.274 15.2354 247.37 14.9207 247.464 14.606C247.692 13.849 247.915 13.09 248.154 12.3363C248.177 12.2655 248.298 12.1831 248.377 12.1797C248.745 12.1633 249.115 12.1783 249.484 12.1701C249.669 12.1662 249.7 12.2862 249.742 12.4226C250.045 13.4153 250.353 14.407 250.66 15.3992C250.679 15.4595 250.703 15.5178 250.747 15.6349C250.931 15.0316 251.1 14.4803 251.268 13.929C251.422 13.4249 251.58 12.9223 251.726 12.4163C251.779 12.2332 251.876 12.159 252.071 12.1677C252.399 12.1821 252.728 12.1735 253.057 12.1715C253.218 12.1706 253.301 12.2062 253.23 12.3971C252.851 13.4138 252.478 14.433 252.106 15.4527C251.926 15.9476 251.747 16.443 251.578 16.9423C251.509 17.1451 251.425 17.268 251.174 17.2478C250.839 17.2213 250.5 17.2367 250.164 17.2434C250.024 17.2463 249.951 17.2054 249.905 17.0608C249.66 16.2927 249.403 15.5284 249.149 14.7631C249.074 14.5371 248.994 14.3131 248.902 14.0466C248.679 14.7381 248.47 15.3896 248.258 16.0397C248.144 16.389 248.036 16.7403 247.905 17.083C247.878 17.1533 247.763 17.2304 247.686 17.2338C247.317 17.2497 246.948 17.2314 246.579 17.2454C246.409 17.2516 246.333 17.176 246.281 17.0333C246.071 16.4555 245.857 15.8797 245.646 15.3024C245.306 14.3723 244.966 13.4418 244.628 12.5113C244.596 12.4236 244.569 12.3339 244.517 12.1773H244.517Z" fill="#2F2F2F"></path><path d="M238.897 15.2393C238.618 15.5776 238.214 15.7747 238.291 16.287C238.327 16.5298 238.291 16.7823 238.299 17.0305C238.304 17.1818 238.256 17.2469 238.095 17.2435C237.726 17.2348 237.357 17.2358 236.988 17.2435C236.839 17.2464 236.785 17.1818 236.788 17.0455C236.789 16.9973 236.786 16.9496 236.786 16.9014C236.786 14.8124 236.786 12.7229 236.786 10.6339C236.786 10.2561 236.788 10.2556 237.157 10.2551C237.445 10.2551 237.735 10.2648 238.023 10.2522C238.231 10.2431 238.303 10.3158 238.301 10.5279C238.293 11.5765 238.297 12.6251 238.297 13.6737C238.297 13.7609 238.297 13.8481 238.297 13.9946C238.394 13.9069 238.457 13.8548 238.514 13.7965C238.976 13.3195 239.43 12.8342 239.904 12.3687C240.005 12.2694 240.175 12.1995 240.318 12.1904C240.701 12.1663 241.087 12.1812 241.472 12.1832C241.55 12.1832 241.627 12.1962 241.761 12.2082C241.616 12.3754 241.509 12.508 241.392 12.6308C240.956 13.0886 240.52 13.546 240.077 13.996C239.969 14.1059 239.952 14.1811 240.041 14.3208C240.627 15.236 241.201 16.1588 241.777 17.0797C241.797 17.1115 241.803 17.1515 241.824 17.2122C241.75 17.2233 241.691 17.2397 241.633 17.2401C241.184 17.2421 240.735 17.2363 240.286 17.2445C240.138 17.2474 240.057 17.1915 239.984 17.0652C239.638 16.472 239.282 15.8851 238.897 15.2403L238.897 15.2393Z" fill="#2F2F2F"></path><path d="M260.134 17.5632C260.323 17.6428 260.466 17.7141 260.616 17.7632C261.032 17.8996 261.558 17.5584 261.551 17.1281C261.549 16.9402 261.435 16.7508 261.357 16.5681C260.969 15.6569 260.576 14.7485 260.185 13.8382C259.996 13.3983 259.808 12.9583 259.623 12.5164C259.584 12.4239 259.562 12.3251 259.513 12.1699C259.743 12.1699 259.931 12.1699 260.119 12.1699C260.368 12.1699 260.618 12.1555 260.864 12.1791C260.952 12.1873 261.076 12.2701 261.108 12.3487C261.425 13.1496 261.725 13.9577 262.032 14.7625C262.12 14.9909 262.214 15.2164 262.362 15.4444C262.452 15.1928 262.544 14.9418 262.631 14.6892C262.897 13.9197 263.166 13.1506 263.423 12.3781C263.476 12.2186 263.563 12.1661 263.721 12.1685C264.127 12.1742 264.532 12.1704 265 12.1704C264.856 12.5482 264.74 12.8662 264.615 13.1814C264.229 14.1616 263.844 15.1422 263.451 16.12C263.18 16.7937 262.923 17.4746 262.612 18.1295C262.319 18.7448 261.798 19.0725 261.105 19.1145C260.585 19.1458 260.098 19.06 259.677 18.7352C259.619 18.6904 259.547 18.5699 259.569 18.5309C259.748 18.1979 259.948 17.875 260.134 17.5628L260.134 17.5632Z" fill="#2F2F2F"></path><path d="M259.581 11.612C259.307 11.5599 259.069 11.4819 258.828 11.4766C258.468 11.4684 258.189 11.9941 258.377 12.3006C258.405 12.3459 258.498 12.369 258.562 12.3714C258.81 12.3801 259.059 12.3801 259.307 12.3748C259.472 12.3714 259.536 12.4399 259.53 12.6047C259.52 12.8283 259.522 13.0528 259.529 13.2764C259.533 13.4224 259.468 13.4774 259.328 13.4754C259.088 13.4726 258.847 13.486 258.607 13.4726C258.403 13.461 258.347 13.5448 258.349 13.7381C258.356 14.7944 258.352 15.8507 258.352 16.9065C258.352 17.24 258.35 17.2405 258.028 17.2405C257.716 17.2405 257.403 17.2299 257.091 17.2443C256.898 17.2535 256.845 17.186 256.846 16.9986C256.854 15.9263 256.842 14.8541 256.855 13.7819C256.858 13.5429 256.802 13.4576 256.552 13.4697C256.179 13.4885 256.178 13.4726 256.178 13.088C256.178 12.928 256.185 12.7675 256.176 12.608C256.168 12.4456 256.233 12.3811 256.398 12.3729C256.846 12.3512 256.846 12.3454 256.85 11.9088C256.859 10.9701 257.521 10.2906 258.516 10.2034C258.998 10.161 259.453 10.2622 259.892 10.4602C260.045 10.5292 260.096 10.6082 260.004 10.7735C259.848 11.0515 259.715 11.3416 259.58 11.611L259.581 11.612Z" fill="#2F2F2F"></path><path d="M255.33 14.7279C255.33 15.4806 255.325 16.2338 255.334 16.9865C255.337 17.1879 255.267 17.252 255.07 17.2443C254.725 17.2313 254.38 17.2342 254.035 17.2433C253.866 17.2477 253.786 17.2004 253.786 17.0159C253.791 15.4782 253.79 13.9404 253.787 12.4027C253.787 12.2394 253.856 12.1695 254.017 12.1705C254.378 12.1733 254.739 12.1753 255.1 12.17C255.28 12.1676 255.334 12.2519 255.332 12.421C255.327 13.1897 255.33 13.9588 255.33 14.7279H255.33Z" fill="#2F2F2F"></path><path d="M243.984 14.7014C243.984 15.4618 243.979 16.2217 243.987 16.9821C243.989 17.1764 243.932 17.2535 243.728 17.2453C243.384 17.2308 243.038 17.2356 242.694 17.2438C242.535 17.2477 242.462 17.2019 242.463 17.0289C242.467 15.4844 242.467 13.94 242.464 12.3955C242.464 12.2447 242.52 12.1724 242.673 12.1729C243.042 12.1743 243.41 12.1758 243.779 12.1719C243.959 12.17 243.987 12.2736 243.986 12.421C243.983 13.1815 243.984 13.9414 243.984 14.7018L243.984 14.7014Z" fill="#2F2F2F"></path><path d="M254.567 11.6151C254.1 11.6161 253.737 11.247 253.74 10.7733C253.743 10.3063 254.095 9.95116 254.556 9.94971C255.037 9.94827 255.383 10.3015 255.378 10.7882C255.372 11.2662 255.031 11.6146 254.567 11.6156L254.567 11.6151Z" fill="#2F2F2F"></path><path d="M243.221 9.94825C243.687 9.94584 244.049 10.3 244.051 10.7602C244.053 11.246 243.704 11.6117 243.236 11.6146C242.761 11.6175 242.416 11.2638 242.416 10.7747C242.416 10.2943 242.751 9.95066 243.221 9.94825Z" fill="#2F2F2F"></path><path d="M228.493 15.9749C228.494 15.52 229.154 14.8656 229.606 14.8781C229.802 14.8834 229.922 14.9798 229.916 15.1909C229.907 15.5229 229.706 15.7585 229.479 15.9585C229.321 16.0968 229.125 16.2004 228.93 16.2838C228.698 16.3831 228.493 16.2245 228.493 15.9754V15.9749Z" fill="#2F2F2F"></path><path d="M232.814 16.5177C232.776 16.5909 232.737 16.7803 232.641 16.816C232.516 16.8622 232.308 16.8367 232.2 16.7557C231.832 16.4767 231.628 16.0864 231.639 15.6185C231.641 15.4975 231.733 15.3187 231.832 15.2758C231.934 15.2315 232.122 15.2821 232.223 15.3578C232.579 15.6262 232.753 16.0069 232.814 16.5177Z" fill="#2F2F2F"></path><path d="M231.12 16.0891C231.084 16.4761 231.041 16.7994 230.801 17.0539C230.594 17.2727 230.329 17.2365 230.237 16.9527C230.084 16.4751 230.121 16.0034 230.439 15.5947C230.651 15.3224 230.912 15.3754 231.034 15.7036C231.085 15.8429 231.1 15.9952 231.121 16.0891H231.12Z" fill="#2F2F2F"></path><path d="M228.226 14.6535C228.137 14.6313 227.984 14.6116 227.845 14.5557C227.546 14.4352 227.504 14.1485 227.762 13.9586C228.174 13.6555 228.643 13.6256 229.114 13.761C229.401 13.843 229.433 14.148 229.205 14.3427C228.941 14.5687 228.621 14.6246 228.226 14.6535Z" fill="#2F2F2F"></path><path d="M228.444 12.0142C228.81 12.033 229.181 12.2354 229.458 12.5953C229.657 12.8551 229.527 13.1225 229.202 13.1596C228.803 13.2054 228.165 12.8806 227.971 12.5322C227.798 12.2238 227.954 12.0108 228.444 12.0137V12.0142Z" fill="#2F2F2F"></path><defs><clipPath id="clip0_101_120"><rect width="28.6808" height="16.3359" fill="white" transform="translate(5.83459 6.81982)"></rect></clipPath></defs></svg>