<svg xmlns="http://www.w3.org/2000/svg" width="173" height="60" viewBox="0 0 173 60" fill="none"><path d="M162.001 48.5027V21.9775H168.438V24.9306C168.744 23.905 169.286 23.1033 170.065 22.5257C170.843 21.948 171.821 21.6592 173 21.6592V26.9465C172.481 26.9465 171.862 27.0055 171.143 27.1234C170.424 27.2295 169.793 27.3827 169.251 27.5832C168.709 27.7718 168.438 27.984 168.438 28.2198V48.5027H162.001Z" fill="#2F2F2F"></path><path d="M149.322 48.7856C147.848 48.7856 146.722 48.4437 145.944 47.76C145.178 47.0762 144.653 46.139 144.37 44.9483C144.088 43.7576 143.946 42.4078 143.946 40.8988C143.946 39.2837 144.105 37.9633 144.424 36.9377C144.742 35.9002 145.284 35.0514 146.05 34.3913C146.828 33.7311 147.895 33.1711 149.251 32.7113L153.177 31.3674V28.6441C153.177 27.2177 152.711 26.5044 151.78 26.5044C150.931 26.5044 150.507 27.0821 150.507 28.2374V29.8289H144.353C144.341 29.7346 144.335 29.6167 144.335 29.4753C144.335 29.322 144.335 29.1511 144.335 28.9624C144.335 26.3217 144.954 24.4532 146.192 23.3568C147.442 22.2486 149.416 21.6945 152.116 21.6945C153.531 21.6945 154.798 21.948 155.918 22.4549C157.038 22.9501 157.922 23.6869 158.57 24.6654C159.23 25.6438 159.561 26.8522 159.561 28.2905V48.5027H153.265V45.355C152.959 46.4632 152.452 47.312 151.744 47.9014C151.037 48.4909 150.23 48.7856 149.322 48.7856ZM151.815 43.8696C152.334 43.8696 152.688 43.6515 152.876 43.2153C153.065 42.7791 153.159 42.3076 153.159 41.8006V34.4089C152.287 34.7626 151.609 35.2106 151.126 35.7529C150.642 36.2834 150.401 37.0674 150.401 38.1048V41.5177C150.401 43.0856 150.872 43.8696 151.815 43.8696Z" fill="#2F2F2F"></path><path d="M134.68 48.7856C131.709 48.7856 129.599 48.0252 128.349 46.5044C127.111 44.9837 126.493 42.7496 126.493 39.8024V31.6326C126.493 29.4163 126.728 27.5713 127.2 26.0977C127.671 24.6241 128.497 23.5218 129.676 22.7909C130.854 22.06 132.493 21.6945 134.592 21.6945C136.053 21.6945 137.362 21.9539 138.517 22.4726C139.684 22.9913 140.604 23.7517 141.276 24.7538C141.948 25.7558 142.284 26.9819 142.284 28.4319V32.4814H135.829V28.7679C135.829 28.1549 135.741 27.6421 135.564 27.2295C135.387 26.8051 135.004 26.5928 134.415 26.5928C133.377 26.5928 132.859 27.3297 132.859 28.8033V41.6592C132.859 42.2015 132.976 42.7025 133.212 43.1623C133.448 43.6102 133.837 43.8342 134.379 43.8342C134.933 43.8342 135.317 43.6161 135.529 43.1799C135.753 42.732 135.865 42.2132 135.865 41.6238V37.1676H142.284V41.8006C142.284 43.2625 141.954 44.518 141.294 45.5672C140.645 46.6046 139.749 47.4004 138.606 47.9545C137.462 48.5086 136.154 48.7856 134.68 48.7856Z" fill="#2F2F2F"></path><path d="M113.743 48.7856C112.328 48.7856 111.243 48.4909 110.489 47.9015C109.746 47.312 109.239 46.4927 108.968 45.4434C108.697 44.3824 108.561 43.1446 108.561 41.7299V21.9775H114.928V40.9872C114.928 42.0482 115.01 42.7909 115.175 43.2153C115.34 43.6279 115.729 43.8343 116.342 43.8343C117.002 43.8343 117.415 43.5395 117.58 42.9501C117.757 42.3606 117.845 41.6002 117.845 40.6689V21.9775H124.158V48.5027H117.828V45.6733C117.427 46.6872 116.943 47.4594 116.378 47.9899C115.824 48.5204 114.945 48.7856 113.743 48.7856ZM112.222 21.0403V17.0968L120.622 13.2418V19.378L112.222 21.0403Z" fill="#2F2F2F"></path><path d="M98.8179 48.7856C95.847 48.7856 93.7368 48.0252 92.4872 46.5044C91.2493 44.9837 90.6304 42.7496 90.6304 39.8024V31.6326C90.6304 29.4163 90.8662 27.5713 91.3378 26.0977C91.8093 24.6241 92.6346 23.5218 93.8135 22.7909C94.9924 22.06 96.631 21.6945 98.7295 21.6945C100.191 21.6945 101.5 21.9539 102.655 22.4726C103.822 22.9913 104.742 23.7517 105.414 24.7538C106.086 25.7558 106.422 26.9819 106.422 28.4319V32.4814H99.9673V28.7679C99.9673 28.1549 99.8789 27.6421 99.702 27.2295C99.5252 26.8051 99.1421 26.5928 98.5526 26.5928C97.5152 26.5928 96.9965 27.3297 96.9965 28.8033V41.6592C96.9965 42.2015 97.1144 42.7025 97.3501 43.1623C97.5859 43.6102 97.975 43.8342 98.5173 43.8342C99.0713 43.8342 99.4545 43.6161 99.6667 43.1799C99.8907 42.732 100.003 42.2132 100.003 41.6238V37.1676H106.422V41.8006C106.422 43.2625 106.092 44.518 105.431 45.5672C104.783 46.6046 103.887 47.4004 102.744 47.9545C101.6 48.5086 100.291 48.7856 98.8179 48.7856ZM98.199 59.6609C96.9847 59.6609 95.8176 59.4252 94.6976 58.9536V55.0102C95.0631 55.1281 95.4226 55.2224 95.7763 55.2931C96.13 55.3756 96.466 55.4169 96.7843 55.4169C97.3737 55.4169 97.863 55.2578 98.252 54.9395C98.6528 54.6329 98.8532 54.0965 98.8532 53.3303C98.8532 52.6701 98.6882 51.9156 98.3581 51.0668C98.0398 50.218 97.5918 49.3633 97.0142 48.5027H99.8612C101.005 49.5047 101.889 50.6188 102.514 51.8448C103.15 53.0827 103.469 54.2498 103.469 55.3462C103.469 56.5604 103.05 57.5802 102.213 58.4054C101.376 59.2424 100.038 59.6609 98.199 59.6609Z" fill="#2F2F2F"></path><path d="M78.1635 48.7856C76.6899 48.7856 75.5641 48.4437 74.786 47.76C74.0197 47.0762 73.4951 46.139 73.2122 44.9483C72.9292 43.7576 72.7878 42.4078 72.7878 40.8988C72.7878 39.2837 72.9469 37.9633 73.2652 36.9377C73.5835 35.9002 74.1258 35.0514 74.8921 34.3913C75.6702 33.7311 76.7371 33.1711 78.0928 32.7113L82.0185 31.3674V28.6441C82.0185 27.2177 81.5529 26.5044 80.6215 26.5044C79.7727 26.5044 79.3483 27.0821 79.3483 28.2374V29.8289H73.1945C73.1827 29.7346 73.1768 29.6167 73.1768 29.4753C73.1768 29.322 73.1768 29.1511 73.1768 28.9624C73.1768 26.3217 73.7957 24.4532 75.0336 23.3568C76.2832 22.2486 78.2578 21.6945 80.9575 21.6945C82.3722 21.6945 83.6395 21.948 84.7595 22.4549C85.8794 22.9501 86.7636 23.6869 87.412 24.6654C88.0722 25.6438 88.4023 26.8522 88.4023 28.2905V48.5027H82.1069V45.355C81.8004 46.4632 81.2935 47.312 80.5862 47.9014C79.8788 48.4909 79.0713 48.7856 78.1635 48.7856ZM80.6569 43.8696C81.1756 43.8696 81.5293 43.6515 81.7179 43.2153C81.9065 42.7791 82.0008 42.3076 82.0008 41.8006V34.4089C81.1285 34.7626 80.4506 35.2106 79.9672 35.7529C79.4839 36.2834 79.2422 37.0674 79.2422 38.1048V41.5177C79.2422 43.0856 79.7138 43.8696 80.6569 43.8696Z" fill="#2F2F2F"></path><path d="M32.9266 48.5027V21.9775H39.3634V24.9306C39.6699 23.905 40.2122 23.1033 40.9903 22.5257C41.7684 21.948 42.7468 21.6592 43.9257 21.6592V26.9465C43.407 26.9465 42.7881 27.0055 42.069 27.1234C41.3498 27.2295 40.7191 27.3827 40.1768 27.5832C39.6345 27.7718 39.3634 27.984 39.3634 28.2198V48.5027H32.9266Z" fill="#2F2F2F"></path><path d="M22.6702 48.7856C20.7839 48.7856 19.2808 48.4319 18.1609 47.7246C17.0409 47.0173 16.2393 45.9975 15.7559 44.6654C15.2726 43.3332 15.0309 41.7299 15.0309 39.8555V29.1923C15.0309 26.7284 15.7382 24.8658 17.1529 23.6043C18.5676 22.3311 20.5128 21.6945 22.9885 21.6945C28.0813 21.6945 30.6277 24.1938 30.6277 29.1923V31.1198C30.6277 33.454 30.6041 35.022 30.557 35.8236H21.3616V40.9518C21.3616 41.4234 21.391 41.8891 21.45 42.3488C21.5089 42.7968 21.6386 43.1682 21.839 43.4629C22.0512 43.7576 22.3872 43.905 22.847 43.905C23.5072 43.905 23.9198 43.622 24.0848 43.0562C24.2499 42.4785 24.3324 41.7299 24.3324 40.8104V38.2639H30.6277V39.767C30.6277 41.7476 30.3801 43.4098 29.885 44.7538C29.4017 46.0859 28.5764 47.0939 27.4093 47.7776C26.254 48.4496 24.6743 48.7856 22.6702 48.7856ZM21.3262 32.676H24.3324V29.1039C24.3324 28.149 24.2145 27.4652 23.9787 27.0526C23.7429 26.6282 23.3893 26.416 22.9177 26.416C22.4108 26.416 22.0159 26.6164 21.7329 27.0173C21.4618 27.4181 21.3262 28.1136 21.3262 29.1039V32.676Z" fill="#2F2F2F"></path><path d="M0.495139 48.5027V44.63L7.10876 26.9996H0.813441V21.9775H13.6693V26.2923L7.42706 43.7635H13.7224V48.5027H0.495139Z" fill="#2F2F2F"></path><path d="M113.442 4.59595C113.442 5.51547 113.276 6.31011 112.944 6.97988C112.612 7.64966 112.157 8.16618 111.578 8.52944C110.999 8.89271 110.337 9.07434 109.594 9.07434C108.85 9.07434 108.189 8.89271 107.61 8.52944C107.031 8.16618 106.576 7.64966 106.244 6.97988C105.912 6.31011 105.746 5.51547 105.746 4.59595C105.746 3.67643 105.912 2.88178 106.244 2.21201C106.576 1.54224 107.031 1.02572 107.61 0.662454C108.189 0.299187 108.85 0.117554 109.594 0.117554C110.337 0.117554 110.999 0.299187 111.578 0.662454C112.157 1.02572 112.612 1.54224 112.944 2.21201C113.276 2.88178 113.442 3.67643 113.442 4.59595ZM112.421 4.59595C112.421 3.84104 112.294 3.2039 112.042 2.68454C111.792 2.16518 111.453 1.77212 111.024 1.50535C110.599 1.23857 110.122 1.10518 109.594 1.10518C109.066 1.10518 108.588 1.23857 108.159 1.50535C107.734 1.77212 107.394 2.16518 107.142 2.68454C106.892 3.2039 106.767 3.84104 106.767 4.59595C106.767 5.35086 106.892 5.988 107.142 6.50735C107.394 7.02671 107.734 7.41978 108.159 7.68655C108.588 7.95332 109.066 8.08671 109.594 8.08671C110.122 8.08671 110.599 7.95332 111.024 7.68655C111.453 7.41978 111.792 7.02671 112.042 6.50735C112.294 5.988 112.421 5.35086 112.421 4.59595Z" fill="#2F2F2F"></path><path d="M103.01 0.236751V8.95514H101.955V0.236751H103.01Z" fill="#2F2F2F"></path><path d="M93.9597 8.95514V0.236751H99.1874V1.1733H95.0155V4.11916H98.7957V5.05571H95.0155V8.95514H93.9597Z" fill="#2F2F2F"></path><path d="M85.2572 8.95514H84.1504L87.3516 0.236751H88.4414L91.6427 8.95514H90.5359L87.9306 1.61603H87.8625L85.2572 8.95514ZM85.6659 5.54952H90.1272V6.48607H85.6659V5.54952Z" fill="#2F2F2F"></path><path d="M81.0639 2.41635C81.0128 1.98497 80.8056 1.65008 80.4424 1.41169C80.0791 1.1733 79.6335 1.0541 79.1056 1.0541C78.7197 1.0541 78.3819 1.11654 78.0925 1.24141C77.8058 1.36628 77.5816 1.53798 77.4199 1.75651C77.2609 1.97504 77.1815 2.22336 77.1815 2.50149C77.1815 2.73421 77.2368 2.93429 77.3475 3.10173C77.461 3.26634 77.6058 3.40398 77.7817 3.51466C77.9577 3.62251 78.1421 3.7119 78.3351 3.78286C78.5281 3.85097 78.7055 3.90631 78.8672 3.94888L79.7527 4.18727C79.9798 4.24687 80.2323 4.32917 80.5105 4.43418C80.7914 4.53919 81.0596 4.68251 81.315 4.86414C81.5733 5.04294 81.7862 5.27281 81.9536 5.55378C82.121 5.83474 82.2048 6.17956 82.2048 6.58824C82.2048 7.05935 82.0813 7.48505 81.8344 7.86535C81.5903 8.24564 81.2327 8.54789 80.7616 8.77209C80.2934 8.9963 79.7243 9.1084 79.0546 9.1084C78.4302 9.1084 77.8896 9.00765 77.4326 8.80615C76.9785 8.60465 76.621 8.32369 76.3599 7.96326C76.1016 7.60283 75.9554 7.18422 75.9214 6.70743H77.0112C77.0396 7.03664 77.1502 7.30909 77.3432 7.52478C77.5391 7.73763 77.786 7.89656 78.084 8.00157C78.3848 8.10374 78.7083 8.15482 79.0546 8.15482C79.4576 8.15482 79.8194 8.08955 80.1401 7.959C80.4608 7.82561 80.7148 7.64114 80.9021 7.40559C81.0894 7.16719 81.1831 6.88907 81.1831 6.57121C81.1831 6.28173 81.1022 6.04618 80.9404 5.86454C80.7787 5.68291 80.5658 5.53533 80.3019 5.42181C80.0379 5.30829 79.7527 5.20896 79.4462 5.12382L78.3734 4.81731C77.6923 4.62149 77.1531 4.34195 76.7558 3.97868C76.3584 3.61541 76.1598 3.14004 76.1598 2.55257C76.1598 2.06443 76.2918 1.63873 76.5557 1.27547C76.8225 0.909361 77.18 0.625559 77.6285 0.42406C78.0797 0.219722 78.5835 0.117554 79.1397 0.117554C79.7016 0.117554 80.2011 0.218303 80.6382 0.419803C81.0752 0.618464 81.4215 0.890914 81.6769 1.23715C81.9351 1.58339 82.0714 1.97646 82.0856 2.41635H81.0639Z" fill="#2F2F2F"></path><path d="M68.1724 8.95514V0.236751H73.4341V1.1733H69.2281V4.11916H73.1616V5.05571H69.2281V8.0186H73.5022V8.95514H68.1724Z" fill="#2F2F2F"></path><path d="M61.2876 8.95514H58.5972V0.236751H61.4068C62.2525 0.236751 62.9762 0.411289 63.5779 0.760365C64.1795 1.1066 64.6407 1.60468 64.9614 2.25458C65.2821 2.90165 65.4425 3.67643 65.4425 4.57892C65.4425 5.48709 65.2807 6.26896 64.9572 6.92454C64.6336 7.57729 64.1625 8.07962 63.5438 8.43153C62.9251 8.78061 62.1731 8.95514 61.2876 8.95514ZM59.6529 8.0186H61.2195C61.9403 8.0186 62.5378 7.87954 63.0117 7.60141C63.4856 7.32328 63.839 6.92738 64.0717 6.4137C64.3044 5.90002 64.4208 5.28842 64.4208 4.57892C64.4208 3.87509 64.3058 3.26917 64.076 2.76117C63.8461 2.25032 63.5027 1.85868 63.0458 1.58623C62.5888 1.31094 62.0198 1.1733 61.3387 1.1733H59.6529V8.0186Z" fill="#2F2F2F"></path><path d="M0 3.54844H53.9451V4.14783H0V3.54844Z" fill="#2F2F2F"></path><path fill-rule="evenodd" clip-rule="evenodd" d="M44.3548 40.0301C44.3548 45.9274 47.1957 48.8761 52.8774 48.8761C58.5718 48.8761 61.419 45.9274 61.419 40.0301V36.5149H54.4754V41.4379C54.4754 42.072 54.3486 42.5983 54.0949 43.0168C53.8539 43.4227 53.4481 43.6256 52.8774 43.6256C52.3067 43.6256 51.8945 43.4227 51.6409 43.0168C51.3999 42.5983 51.2794 42.072 51.2794 41.4379V36.5149H44.3548V40.0301ZM44.3548 31.7198H51.2794V27.4936C51.2794 25.8322 51.8121 25.0015 52.8774 25.0015C53.9427 25.0015 54.4754 25.8322 54.4754 27.4936V31.7198H61.419V28.5779C61.419 25.8893 60.6644 23.7459 59.1552 22.148C57.646 20.5373 55.5534 19.732 52.8774 19.732C50.2141 19.732 48.1278 20.5373 46.6186 22.148C45.1094 23.7459 44.3548 25.8893 44.3548 28.5779V31.7198Z" fill="#C5AC81"></path><path d="M118.08 3.54844H172.025V4.14783H118.08V3.54844Z" fill="#2F2F2F"></path></svg>