<svg xmlns="http://www.w3.org/2000/svg" width="173" height="60" viewBox="0 0 173 60" fill="none"><path d="M162.001 48.5477V22.0225H168.438V24.9757C168.744 23.95 169.286 23.1484 170.065 22.5707C170.843 21.9931 171.821 21.7042 173 21.7042V26.9916C172.481 26.9916 171.862 27.0505 171.143 27.1684C170.424 27.2745 169.793 27.4278 169.251 27.6282C168.709 27.8168 168.438 28.029 168.438 28.2648V48.5477H162.001Z" fill="#2F2F2F"></path><path d="M149.322 48.8306C147.848 48.8306 146.722 48.4888 145.944 47.805C145.178 47.1212 144.653 46.184 144.37 44.9933C144.088 43.8026 143.946 42.4528 143.946 40.9438C143.946 39.3287 144.105 38.0084 144.424 36.9827C144.742 35.9453 145.284 35.0965 146.05 34.4363C146.828 33.7761 147.895 33.2161 149.251 32.7564L153.177 31.4124V28.6892C153.177 27.2627 152.711 26.5495 151.78 26.5495C150.931 26.5495 150.507 27.1271 150.507 28.2825V29.874H144.353C144.341 29.7797 144.335 29.6618 144.335 29.5203C144.335 29.367 144.335 29.1961 144.335 29.0075C144.335 26.3667 144.954 24.4982 146.192 23.4018C147.442 22.2937 149.416 21.7396 152.116 21.7396C153.531 21.7396 154.798 21.993 155.918 22.5C157.038 22.9951 157.922 23.7319 158.57 24.7104C159.23 25.6889 159.561 26.8972 159.561 28.3355V48.5477H153.265V45.4001C152.959 46.5082 152.452 47.357 151.744 47.9465C151.037 48.5359 150.23 48.8306 149.322 48.8306ZM151.815 43.9146C152.334 43.9146 152.688 43.6965 152.876 43.2604C153.065 42.8242 153.159 42.3526 153.159 41.8457V34.454C152.287 34.8077 151.609 35.2556 151.126 35.7979C150.642 36.3284 150.401 37.1124 150.401 38.1498V41.5627C150.401 43.1307 150.872 43.9146 151.815 43.9146Z" fill="#2F2F2F"></path><path d="M134.68 48.8306C131.709 48.8306 129.599 48.0703 128.349 46.5495C127.111 45.0287 126.493 42.7947 126.493 39.8474V31.6777C126.493 29.4614 126.728 27.6164 127.2 26.1428C127.671 24.6691 128.497 23.5669 129.676 22.8359C130.854 22.105 132.493 21.7396 134.592 21.7396C136.053 21.7396 137.362 21.9989 138.517 22.5176C139.684 23.0364 140.604 23.7967 141.276 24.7988C141.948 25.8009 142.284 27.0269 142.284 28.477V32.5265H135.829V28.813C135.829 28.1999 135.741 27.6871 135.564 27.2745C135.387 26.8501 135.004 26.6379 134.415 26.6379C133.377 26.6379 132.859 27.3747 132.859 28.8483V41.7042C132.859 42.2465 132.976 42.7475 133.212 43.2073C133.448 43.6553 133.837 43.8793 134.379 43.8793C134.933 43.8793 135.317 43.6612 135.529 43.225C135.753 42.777 135.865 42.2583 135.865 41.6688V37.2126H142.284V41.8457C142.284 43.3075 141.954 44.563 141.294 45.6123C140.645 46.6497 139.749 47.4454 138.606 47.9995C137.462 48.5536 136.154 48.8306 134.68 48.8306Z" fill="#2F2F2F"></path><path d="M113.743 48.8307C112.328 48.8307 111.243 48.5359 110.489 47.9465C109.746 47.357 109.239 46.5377 108.968 45.4885C108.697 44.4275 108.561 43.1896 108.561 41.775V22.0225H114.928V41.0323C114.928 42.0933 115.01 42.836 115.175 43.2604C115.34 43.673 115.729 43.8793 116.342 43.8793C117.002 43.8793 117.415 43.5846 117.58 42.9951C117.757 42.4057 117.845 41.6453 117.845 40.714V22.0225H124.158V48.5477H117.828V45.7184C117.427 46.7322 116.943 47.5044 116.378 48.0349C115.824 48.5654 114.945 48.8307 113.743 48.8307ZM112.222 21.0853V17.1419L120.622 13.2869V19.4231L112.222 21.0853Z" fill="#2F2F2F"></path><path d="M98.8179 48.8306C95.847 48.8306 93.7368 48.0703 92.4872 46.5495C91.2493 45.0287 90.6304 42.7947 90.6304 39.8474V31.6777C90.6304 29.4614 90.8662 27.6164 91.3378 26.1428C91.8093 24.6691 92.6346 23.5669 93.8135 22.8359C94.9924 22.105 96.631 21.7396 98.7295 21.7396C100.191 21.7396 101.5 21.9989 102.655 22.5176C103.822 23.0364 104.742 23.7967 105.414 24.7988C106.086 25.8009 106.422 27.0269 106.422 28.477V32.5265H99.9673V28.813C99.9673 28.1999 99.8789 27.6871 99.702 27.2745C99.5252 26.8501 99.1421 26.6379 98.5526 26.6379C97.5152 26.6379 96.9965 27.3747 96.9965 28.8483V41.7042C96.9965 42.2465 97.1144 42.7475 97.3501 43.2073C97.5859 43.6553 97.975 43.8793 98.5173 43.8793C99.0713 43.8793 99.4545 43.6612 99.6667 43.225C99.8907 42.777 100.003 42.2583 100.003 41.6688V37.2126H106.422V41.8457C106.422 43.3075 106.092 44.563 105.431 45.6123C104.783 46.6497 103.887 47.4454 102.744 47.9995C101.6 48.5536 100.291 48.8306 98.8179 48.8306ZM98.199 59.706C96.9847 59.706 95.8176 59.4702 94.6976 58.9986V55.0552C95.0631 55.1731 95.4226 55.2674 95.7763 55.3382C96.13 55.4207 96.466 55.4619 96.7843 55.4619C97.3737 55.4619 97.863 55.3028 98.252 54.9845C98.6528 54.678 98.8532 54.1416 98.8532 53.3753C98.8532 52.7151 98.6882 51.9606 98.3581 51.1118C98.0398 50.263 97.5918 49.4083 97.0142 48.5477H99.8612C101.005 49.5498 101.889 50.6638 102.514 51.8899C103.15 53.1277 103.469 54.2948 103.469 55.3912C103.469 56.6055 103.05 57.6252 102.213 58.4505C101.376 59.2875 100.038 59.706 98.199 59.706Z" fill="#2F2F2F"></path><path d="M78.1635 48.8306C76.6899 48.8306 75.5641 48.4888 74.786 47.805C74.0197 47.1212 73.4951 46.184 73.2122 44.9933C72.9292 43.8026 72.7878 42.4528 72.7878 40.9438C72.7878 39.3287 72.9469 38.0084 73.2652 36.9827C73.5835 35.9453 74.1258 35.0965 74.8921 34.4363C75.6702 33.7761 76.7371 33.2161 78.0928 32.7564L82.0185 31.4124V28.6892C82.0185 27.2627 81.5529 26.5495 80.6215 26.5495C79.7727 26.5495 79.3483 27.1271 79.3483 28.2825V29.874H73.1945C73.1827 29.7797 73.1768 29.6618 73.1768 29.5203C73.1768 29.367 73.1768 29.1961 73.1768 29.0075C73.1768 26.3667 73.7957 24.4982 75.0336 23.4018C76.2832 22.2937 78.2578 21.7396 80.9575 21.7396C82.3722 21.7396 83.6395 21.993 84.7595 22.5C85.8794 22.9951 86.7636 23.7319 87.412 24.7104C88.0722 25.6889 88.4023 26.8972 88.4023 28.3355V48.5477H82.1069V45.4001C81.8004 46.5082 81.2935 47.357 80.5862 47.9465C79.8788 48.5359 79.0713 48.8306 78.1635 48.8306ZM80.6569 43.9146C81.1756 43.9146 81.5293 43.6965 81.7179 43.2604C81.9065 42.8242 82.0008 42.3526 82.0008 41.8457V34.454C81.1285 34.8077 80.4506 35.2556 79.9672 35.7979C79.4839 36.3284 79.2422 37.1124 79.2422 38.1498V41.5627C79.2422 43.1307 79.7138 43.9146 80.6569 43.9146Z" fill="#2F2F2F"></path><path d="M32.9266 48.5477V22.0225H39.3634V24.9757C39.6699 23.95 40.2122 23.1484 40.9903 22.5707C41.7684 21.9931 42.7468 21.7042 43.9257 21.7042V26.9916C43.407 26.9916 42.7881 27.0505 42.069 27.1684C41.3498 27.2745 40.7191 27.4278 40.1768 27.6282C39.6345 27.8168 39.3634 28.029 39.3634 28.2648V48.5477H32.9266Z" fill="#2F2F2F"></path><path d="M22.6702 48.8306C20.7839 48.8306 19.2808 48.477 18.1609 47.7696C17.0409 47.0623 16.2393 46.0426 15.7559 44.7104C15.2726 43.3782 15.0309 41.7749 15.0309 39.9005V29.2374C15.0309 26.7735 15.7382 24.9108 17.1529 23.6494C18.5676 22.3762 20.5128 21.7396 22.9885 21.7396C28.0813 21.7396 30.6277 24.2388 30.6277 29.2374V31.1649C30.6277 33.4991 30.6041 35.067 30.557 35.8687H21.3616V40.9969C21.3616 41.4684 21.391 41.9341 21.45 42.3939C21.5089 42.8418 21.6386 43.2132 21.839 43.5079C22.0512 43.8026 22.3872 43.95 22.847 43.95C23.5072 43.95 23.9198 43.6671 24.0848 43.1012C24.2499 42.5235 24.3324 41.7749 24.3324 40.8554V38.309H30.6277V39.8121C30.6277 41.7926 30.3801 43.4549 29.885 44.7988C29.4017 46.131 28.5764 47.1389 27.4093 47.8227C26.254 48.4947 24.6743 48.8306 22.6702 48.8306ZM21.3262 32.721H24.3324V29.1489C24.3324 28.194 24.2145 27.5103 23.9787 27.0977C23.7429 26.6733 23.3893 26.4611 22.9177 26.4611C22.4108 26.4611 22.0159 26.6615 21.7329 27.0623C21.4618 27.4631 21.3262 28.1587 21.3262 29.1489V32.721Z" fill="#2F2F2F"></path><path d="M0.495139 48.5477V44.6751L7.10876 27.0446H0.813441V22.0225H13.6693V26.3373L7.42706 43.8086H13.7224V48.5477H0.495139Z" fill="#2F2F2F"></path><path d="M113.442 4.64099C113.442 5.56051 113.276 6.35515 112.944 7.02493C112.612 7.6947 112.157 8.21122 111.578 8.57449C110.999 8.93775 110.337 9.11939 109.594 9.11939C108.85 9.11939 108.189 8.93775 107.61 8.57449C107.031 8.21122 106.576 7.6947 106.244 7.02493C105.912 6.35515 105.746 5.56051 105.746 4.64099C105.746 3.72147 105.912 2.92683 106.244 2.25706C106.576 1.58728 107.031 1.07076 107.61 0.707498C108.189 0.344231 108.85 0.162598 109.594 0.162598C110.337 0.162598 110.999 0.344231 111.578 0.707498C112.157 1.07076 112.612 1.58728 112.944 2.25706C113.276 2.92683 113.442 3.72147 113.442 4.64099ZM112.421 4.64099C112.421 3.88608 112.294 3.24894 112.042 2.72959C111.792 2.21023 111.453 1.81716 111.024 1.55039C110.599 1.28362 110.122 1.15023 109.594 1.15023C109.066 1.15023 108.588 1.28362 108.159 1.55039C107.734 1.81716 107.394 2.21023 107.142 2.72959C106.892 3.24894 106.767 3.88608 106.767 4.64099C106.767 5.39591 106.892 6.03304 107.142 6.5524C107.394 7.07176 107.734 7.46482 108.159 7.73159C108.588 7.99837 109.066 8.13175 109.594 8.13175C110.122 8.13175 110.599 7.99837 111.024 7.73159C111.453 7.46482 111.792 7.07176 112.042 6.5524C112.294 6.03304 112.421 5.39591 112.421 4.64099Z" fill="#2F2F2F"></path><path d="M103.01 0.281795V9.00019H101.955V0.281795H103.01Z" fill="#2F2F2F"></path><path d="M93.9597 9.00019V0.281795H99.1874V1.21834H95.0155V4.1642H98.7957V5.10075H95.0155V9.00019H93.9597Z" fill="#2F2F2F"></path><path d="M85.2572 9.00019H84.1504L87.3516 0.281795H88.4414L91.6427 9.00019H90.5359L87.9306 1.66107H87.8625L85.2572 9.00019ZM85.6659 5.59457H90.1272V6.53111H85.6659V5.59457Z" fill="#2F2F2F"></path><path d="M81.0639 2.46139C81.0128 2.03001 80.8056 1.69513 80.4424 1.45673C80.0791 1.21834 79.6335 1.09914 79.1056 1.09914C78.7197 1.09914 78.3819 1.16158 78.0925 1.28645C77.8058 1.41133 77.5816 1.58303 77.4199 1.80155C77.2609 2.02008 77.1815 2.26841 77.1815 2.54653C77.1815 2.77925 77.2368 2.97933 77.3475 3.14678C77.461 3.31138 77.6058 3.44902 77.7817 3.55971C77.9577 3.66755 78.1421 3.75695 78.3351 3.8279C78.5281 3.89601 78.7055 3.95135 78.8672 3.99392L79.7527 4.23232C79.9798 4.29192 80.2323 4.37422 80.5105 4.47923C80.7914 4.58423 81.0596 4.72755 81.315 4.90918C81.5733 5.08798 81.7862 5.31786 81.9536 5.59882C82.121 5.87979 82.2048 6.22461 82.2048 6.63328C82.2048 7.10439 82.0813 7.5301 81.8344 7.91039C81.5903 8.29068 81.2327 8.59293 80.7616 8.81714C80.2934 9.04134 79.7243 9.15344 79.0546 9.15344C78.4302 9.15344 77.8896 9.05269 77.4326 8.85119C76.9785 8.64969 76.621 8.36873 76.3599 8.0083C76.1016 7.64787 75.9554 7.22926 75.9214 6.75248H77.0112C77.0396 7.08169 77.1502 7.35414 77.3432 7.56983C77.5391 7.78268 77.786 7.94161 78.084 8.04661C78.3848 8.14878 78.7083 8.19987 79.0546 8.19987C79.4576 8.19987 79.8194 8.13459 80.1401 8.00404C80.4608 7.87066 80.7148 7.68619 80.9021 7.45063C81.0894 7.21224 81.1831 6.93411 81.1831 6.61625C81.1831 6.32677 81.1022 6.09122 80.9404 5.90959C80.7787 5.72795 80.5658 5.58038 80.3019 5.46686C80.0379 5.35333 79.7527 5.254 79.4462 5.16886L78.3734 4.86236C77.6923 4.66653 77.1531 4.38699 76.7558 4.02372C76.3584 3.66046 76.1598 3.18509 76.1598 2.59762C76.1598 2.10948 76.2918 1.68378 76.5557 1.32051C76.8225 0.954405 77.18 0.670603 77.6285 0.469104C78.0797 0.264766 78.5835 0.162598 79.1397 0.162598C79.7016 0.162598 80.2011 0.263347 80.6382 0.464847C81.0752 0.663508 81.4215 0.935958 81.6769 1.2822C81.9351 1.62843 82.0714 2.0215 82.0856 2.46139H81.0639Z" fill="#2F2F2F"></path><path d="M68.1724 9.00019V0.281795H73.4341V1.21834H69.2281V4.1642H73.1616V5.10075H69.2281V8.06364H73.5022V9.00019H68.1724Z" fill="#2F2F2F"></path><path d="M61.2876 9.00019H58.5972V0.281795H61.4068C62.2525 0.281795 62.9762 0.456333 63.5779 0.805409C64.1795 1.15165 64.6407 1.64972 64.9614 2.29963C65.2821 2.94669 65.4425 3.72147 65.4425 4.62396C65.4425 5.53213 65.2807 6.314 64.9572 6.96959C64.6336 7.62233 64.1625 8.12466 63.5438 8.47657C62.9251 8.82565 62.1731 9.00019 61.2876 9.00019ZM59.6529 8.06364H61.2195C61.9403 8.06364 62.5378 7.92458 63.0117 7.64645C63.4856 7.36833 63.839 6.97242 64.0717 6.45874C64.3044 5.94506 64.4208 5.33347 64.4208 4.62396C64.4208 3.92013 64.3058 3.31422 64.076 2.80621C63.8461 2.29537 63.5027 1.90372 63.0458 1.63127C62.5888 1.35598 62.0198 1.21834 61.3387 1.21834H59.6529V8.06364Z" fill="#2F2F2F"></path><path d="M0 3.59349H53.9451V4.19288H0V3.59349Z" fill="#2F2F2F"></path><path fill-rule="evenodd" clip-rule="evenodd" d="M44.3548 40.0753C44.3548 45.9726 47.1957 48.9213 52.8774 48.9213C58.5718 48.9213 61.419 45.9726 61.419 40.0753V36.56H54.4753V41.483C54.4753 42.1172 54.3485 42.6435 54.0949 43.062C53.8539 43.4678 53.4481 43.6708 52.8774 43.6708C52.3067 43.6708 51.8945 43.4678 51.6408 43.062C51.3999 42.6435 51.2794 42.1172 51.2794 41.483V36.56H44.3548V40.0753ZM44.3548 31.7649H51.2794V27.5387C51.2794 25.8774 51.812 25.0467 52.8774 25.0467C53.9427 25.0467 54.4753 25.8774 54.4753 27.5387V31.7649H61.419V28.6231C61.419 25.9344 60.6644 23.7911 59.1552 22.1931C57.6459 20.5825 55.5534 19.7771 52.8774 19.7771C50.2141 19.7771 48.1278 20.5825 46.6186 22.1931C45.1094 23.7911 44.3548 25.9344 44.3548 28.6231V31.7649Z" fill="white"></path><path d="M118.08 3.59349H172.025V4.19288H118.08V3.59349Z" fill="#2F2F2F"></path></svg>