<svg xmlns="http://www.w3.org/2000/svg" width="264" height="60" viewBox="0 0 264 60" fill="none"><path d="M0 0.000976562H264V36.001C264 49.2558 253.255 60.001 240 60.001H24C10.7452 60.001 0 49.2558 0 36.001V0.000976562Z" fill="#2F2F2F"></path><path d="M22.0679 39.001V20.9541H26.8359C27.834 20.9541 28.6235 21.1763 29.2046 21.6206C29.7925 22.0649 30.2129 22.6973 30.4658 23.5176C30.7188 24.3379 30.8452 25.3154 30.8452 26.4502C30.8452 27.5439 30.7393 28.4976 30.5273 29.311C30.3154 30.1177 29.936 30.7432 29.3892 31.1875C28.8491 31.6318 28.0801 31.854 27.082 31.854H25.6157V39.001H22.0679ZM25.6157 28.6138H25.8208C26.4907 28.6138 26.9009 28.4258 27.0513 28.0498C27.2017 27.6738 27.2769 27.1201 27.2769 26.3887C27.2769 25.7051 27.2017 25.1787 27.0513 24.8096C26.9077 24.4336 26.5625 24.2456 26.0156 24.2456H25.6157V28.6138ZM31.9937 39.001V20.9541H35.603V35.9248H39.3149V39.001H31.9937ZM39.8481 39.001L41.5913 20.9541H47.7129L49.4253 39.001H46.0107L45.7544 36.0889H43.5806L43.355 39.001H39.8481ZM43.8369 33.2075H45.4775L44.688 24.0303H44.5239L43.8369 33.2075ZM50.5327 39.001V20.9541H54.2446L55.9058 29.5981V20.9541H59.3921V39.001H55.8647L54.0601 29.9775V39.001H50.5327ZM65.2983 39.165C63.856 39.165 62.752 38.731 61.9863 37.8628C61.2275 36.9878 60.8481 35.7266 60.8481 34.0791V25.5068C60.8481 23.9619 61.2241 22.7896 61.9761 21.9897C62.7349 21.1899 63.8423 20.79 65.2983 20.79C66.7544 20.79 67.8584 21.1899 68.6104 21.9897C69.3691 22.7896 69.7485 23.9619 69.7485 25.5068V34.0791C69.7485 35.7266 69.3657 36.9878 68.6001 37.8628C67.8413 38.731 66.7407 39.165 65.2983 39.165ZM65.3291 35.8428C65.876 35.8428 66.1494 35.313 66.1494 34.2534V25.4453C66.1494 24.5566 65.8828 24.1123 65.3496 24.1123C64.748 24.1123 64.4473 24.5669 64.4473 25.4761V34.2739C64.4473 34.8345 64.5156 35.2378 64.6523 35.4839C64.7891 35.7231 65.0146 35.8428 65.3291 35.8428ZM80.3306 39.165C79.0249 39.165 77.9722 38.7583 77.1724 37.9448C76.3794 37.1313 75.9829 35.9932 75.9829 34.5303V26.2041C75.9829 24.4541 76.3281 23.1143 77.0186 22.1846C77.7158 21.2549 78.8472 20.79 80.4126 20.79C81.2671 20.79 82.0259 20.9473 82.689 21.2617C83.3589 21.5762 83.8853 22.0479 84.2681 22.6768C84.6509 23.2988 84.8423 24.085 84.8423 25.0352V28.1523H81.2534V25.4863C81.2534 24.9463 81.1851 24.584 81.0483 24.3994C80.9116 24.208 80.6997 24.1123 80.4126 24.1123C80.0776 24.1123 79.8521 24.2354 79.7358 24.4814C79.6196 24.7207 79.5615 25.042 79.5615 25.4453V34.479C79.5615 34.978 79.6333 35.3301 79.7769 35.5352C79.9272 35.7402 80.1392 35.8428 80.4126 35.8428C80.7202 35.8428 80.9355 35.7163 81.0586 35.4634C81.1885 35.2104 81.2534 34.8823 81.2534 34.479V31.2285H84.8833V34.6431C84.8833 36.229 84.4834 37.3809 83.6836 38.0986C82.8838 38.8096 81.7661 39.165 80.3306 39.165ZM90.3999 39.165C88.9575 39.165 87.8535 38.731 87.0879 37.8628C86.3291 36.9878 85.9497 35.7266 85.9497 34.0791V25.5068C85.9497 23.9619 86.3257 22.7896 87.0776 21.9897C87.8364 21.1899 88.9438 20.79 90.3999 20.79C91.856 20.79 92.96 21.1899 93.7119 21.9897C94.4707 22.7896 94.8501 23.9619 94.8501 25.5068V34.0791C94.8501 35.7266 94.4673 36.9878 93.7017 37.8628C92.9429 38.731 91.8423 39.165 90.3999 39.165ZM90.4307 35.8428C90.9775 35.8428 91.251 35.313 91.251 34.2534V25.4453C91.251 24.5566 90.9844 24.1123 90.4512 24.1123C89.8496 24.1123 89.5488 24.5669 89.5488 25.4761V34.2739C89.5488 34.8345 89.6172 35.2378 89.7539 35.4839C89.8906 35.7231 90.1162 35.8428 90.4307 35.8428ZM96.3062 39.001V20.9541H101.802L103.32 31.9565L104.827 20.9541H110.375V39.001H107.073V25.999L105.001 39.001H101.761L99.5669 25.999V39.001H96.3062ZM111.974 39.001V20.9541H116.742C117.74 20.9541 118.53 21.1763 119.111 21.6206C119.699 22.0649 120.119 22.6973 120.372 23.5176C120.625 24.3379 120.751 25.3154 120.751 26.4502C120.751 27.5439 120.646 28.4976 120.434 29.311C120.222 30.1177 119.842 30.7432 119.295 31.1875C118.755 31.6318 117.986 31.854 116.988 31.854H115.522V39.001H111.974ZM115.522 28.6138H115.727C116.397 28.6138 116.807 28.4258 116.958 28.0498C117.108 27.6738 117.183 27.1201 117.183 26.3887C117.183 25.7051 117.108 25.1787 116.958 24.8096C116.814 24.4336 116.469 24.2456 115.922 24.2456H115.522V28.6138ZM121.9 39.001V20.9541H125.509V35.9248H129.221V39.001H121.9ZM130.247 39.001V20.9541H137.465V24.4404H133.917V27.9575H137.322V31.3516H133.917V35.4839H137.701V39.001H130.247ZM140.449 39.001V24.4199H138.306V20.9541H146.202V24.4199H144.059V39.001H140.449ZM151.513 39.165C150.071 39.165 148.967 38.731 148.201 37.8628C147.442 36.9878 147.063 35.7266 147.063 34.0791V25.5068C147.063 23.9619 147.439 22.7896 148.191 21.9897C148.95 21.1899 150.057 20.79 151.513 20.79C152.969 20.79 154.073 21.1899 154.825 21.9897C155.584 22.7896 155.963 23.9619 155.963 25.5068V34.0791C155.963 35.7266 155.581 36.9878 154.815 37.8628C154.056 38.731 152.956 39.165 151.513 39.165ZM151.544 35.8428C152.091 35.8428 152.364 35.313 152.364 34.2534V25.4453C152.364 24.5566 152.098 24.1123 151.564 24.1123C150.963 24.1123 150.662 24.5669 150.662 25.4761V34.2739C150.662 34.8345 150.73 35.2378 150.867 35.4839C151.004 35.7231 151.229 35.8428 151.544 35.8428ZM162.341 39.001V20.9541H167.304C168.603 20.9541 169.581 21.3164 170.237 22.041C170.893 22.7588 171.221 23.8115 171.221 25.1992V33.6484C171.221 35.3574 170.92 36.6768 170.319 37.6064C169.724 38.5361 168.678 39.001 167.181 39.001H162.341ZM165.971 35.812H166.597C167.26 35.812 167.591 35.4907 167.591 34.8481V25.5376C167.591 24.936 167.509 24.5498 167.345 24.3789C167.188 24.2012 166.863 24.1123 166.371 24.1123H165.971V35.812ZM172.698 39.001V20.9541H179.917V24.4404H176.369V27.9575H179.773V31.3516H176.369V35.4839H180.152V39.001H172.698ZM186.11 39.001V38.1396C186.11 37.2441 186.247 36.4409 186.52 35.73C186.8 35.0122 187.159 34.3491 187.597 33.7407C188.034 33.1255 188.496 32.5239 188.981 31.936C189.453 31.3618 189.9 30.7739 190.324 30.1724C190.755 29.564 191.104 28.9077 191.37 28.2036C191.644 27.4927 191.78 26.6963 191.78 25.8145C191.78 25.3906 191.715 25.0283 191.585 24.7275C191.462 24.4199 191.203 24.2661 190.806 24.2661C190.205 24.2661 189.904 24.8027 189.904 25.876V28.0806H186.11C186.103 27.9233 186.093 27.7456 186.079 27.5474C186.072 27.3491 186.069 27.1577 186.069 26.9731C186.069 25.6743 186.206 24.5737 186.479 23.6714C186.752 22.7622 187.234 22.0718 187.925 21.6001C188.622 21.1216 189.6 20.8823 190.857 20.8823C192.354 20.8823 193.517 21.3027 194.344 22.1436C195.178 22.9844 195.595 24.1841 195.595 25.7427C195.595 26.8022 195.458 27.7319 195.185 28.5317C194.911 29.3247 194.549 30.0493 194.098 30.7056C193.646 31.355 193.151 32.0044 192.611 32.6538C192.228 33.1118 191.855 33.5801 191.493 34.0586C191.138 34.5371 190.823 35.0498 190.55 35.5967H195.472V39.001H186.11ZM198.343 39.001V25.0967C198.097 25.3906 197.758 25.6299 197.328 25.8145C196.897 25.9922 196.49 26.0811 196.107 26.0811V23.1997C196.47 23.145 196.859 23.0288 197.276 22.8511C197.693 22.6665 198.08 22.417 198.435 22.1025C198.797 21.7812 199.074 21.395 199.266 20.9438H202.167V39.001H198.343ZM208.525 39.001V20.9541H213.488C214.787 20.9541 215.764 21.3164 216.42 22.041C217.077 22.7588 217.405 23.8115 217.405 25.1992V33.6484C217.405 35.3574 217.104 36.6768 216.502 37.6064C215.908 38.5361 214.862 39.001 213.365 39.001H208.525ZM212.155 35.812H212.78C213.443 35.812 213.775 35.4907 213.775 34.8481V25.5376C213.775 24.936 213.693 24.5498 213.529 24.3789C213.372 24.2012 213.047 24.1123 212.555 24.1123H212.155V35.812ZM218.717 39.001V20.9541H222.204V39.001H218.717ZM223.147 39.001L224.89 20.9541H231.012L232.724 39.001H229.31L229.053 36.0889H226.879L226.654 39.001H223.147ZM227.136 33.2075H228.776L227.987 24.0303H227.823L227.136 33.2075ZM238.118 39.165C236.47 39.165 235.281 38.7549 234.549 37.9346C233.825 37.1143 233.462 35.8086 233.462 34.0176V32.2539H237.031V34.5098C237.031 34.9268 237.092 35.2549 237.215 35.4941C237.345 35.7266 237.567 35.8428 237.882 35.8428C238.21 35.8428 238.436 35.7471 238.559 35.5557C238.688 35.3643 238.753 35.0498 238.753 34.6123C238.753 34.0586 238.699 33.5972 238.589 33.228C238.48 32.8521 238.289 32.4966 238.015 32.1616C237.749 31.8198 237.376 31.4233 236.897 30.9722L235.277 29.4341C234.067 28.2925 233.462 26.9868 233.462 25.5171C233.462 23.979 233.818 22.8066 234.529 22C235.247 21.1934 236.282 20.79 237.636 20.79C239.29 20.79 240.462 21.231 241.153 22.1128C241.85 22.9946 242.199 24.3345 242.199 26.1323H238.528V24.8916C238.528 24.6455 238.456 24.4541 238.312 24.3174C238.176 24.1807 237.988 24.1123 237.749 24.1123C237.461 24.1123 237.25 24.1943 237.113 24.3584C236.983 24.5156 236.918 24.7207 236.918 24.9736C236.918 25.2266 236.986 25.5 237.123 25.7939C237.26 26.0879 237.53 26.4263 237.933 26.8091L240.015 28.8086C240.432 29.2051 240.814 29.6255 241.163 30.0698C241.512 30.5073 241.792 31.02 242.004 31.6079C242.216 32.189 242.322 32.8999 242.322 33.7407C242.322 35.436 242.007 36.7656 241.378 37.7295C240.756 38.6865 239.669 39.165 238.118 39.165Z" fill="white"></path></svg>